<?xml version="1.0" encoding="UTF-8"?> <svg xmlns="http://www.w3.org/2000/svg" xmlns:xlink="http://www.w3.org/1999/xlink" width="113px" height="45px" viewBox="0 0 113 45" version="1.1"><!-- Generator: Sketch 61 (89581) - https://sketch.com --><title>color_Logo_header</title><desc>Created with Sketch.</desc><defs><polygon id="path-1" points="0 0.632205 50.6068743 0.632205 50.6068743 41.313105 0 41.313105"></polygon><polygon id="path-3" points="0.168732592 0.75082596 10.928456 0.75082596 10.928456 12.885714 0.168732592 12.885714"> </polygon></defs><g id="Screens" stroke="none" stroke-width="1" fill="none" fill-rule="evenodd"><g id="Home-01" transform="translate(-95.000000, -12.000000)"><g id="color_Logo_header" transform="translate(95.000000, 12.000000)"><polygon id="Fill-1" fill="#FEFEFE" points="39.4741544 37.70757 4.2181544 37.70757 10.5461544 3.50757 43.9941544 3.50757"> </polygon><g id="Group-28" transform="translate(0.000000, 0.267750)"><g id="Group-4"><mask id="mask-2" fill="white"><use xlink:href="#path-1"></use></mask><g id="Clip-3"></g><path d="M22.5074304,20.92383 C20.6388624,19.16163 18.8326704,17.45433 17.0174384,15.75603 C16.6847664,15.44463 16.9975504,15.37443 17.1765424,15.25743 C19.6444624,13.64283 22.1123824,12.03003 24.5848224,10.42083 C24.6960144,10.34793 24.7882224,10.19853 25.0178384,10.28673 C24.8343264,11.09583 24.6499104,11.90943 24.4555504,12.76533 L25.1019104,12.76533 C28.3933744,12.76533 31.6839344,12.77163 34.9753984,12.75633 C35.3912384,12.75453 35.4725984,12.85533 35.3614064,13.25043 C35.1643344,13.94883 35.0224064,14.66253 34.8479344,15.40953 C34.9609344,15.37083 35.0187904,15.36183 35.0630864,15.33393 C37.6928224,13.63023 40.3189424,11.92293 42.9531984,10.22553 C43.2153584,10.05633 43.1593104,9.96183 42.9667584,9.78813 C42.4605184,9.33183 41.9732624,8.85393 41.4778704,8.38593 C40.1408544,7.12413 38.8020304,5.86323 37.4171024,4.55643 C37.2335904,5.31873 37.0310944,6.00633 36.9126704,6.70743 C36.8340224,7.16643 36.6423744,7.27893 36.1867584,7.27713 C30.3803664,7.26003 24.5739744,7.26633 18.7684864,7.26633 C16.6603584,7.26633 14.6073744,8.69643 14.0785344,10.72683 C13.2613184,13.86873 12.5191344,17.03133 11.8329984,20.20383 C11.4144464,22.14513 12.8283024,23.74443 14.8261424,23.74623 C18.8570784,23.74893 22.8880144,23.74173 26.9189504,23.75523 C27.2977264,23.75613 27.4721984,23.67333 27.5463264,23.27463 C27.6855424,22.53483 27.8934624,21.80763 28.0905344,21.00303 C30.0350384,22.87413 31.9027024,24.67143 33.7956784,26.49393 C31.0339584,28.27773 28.3174384,30.03183 25.5204624,31.83813 C25.6985504,31.06233 25.8160704,30.37473 26.0230864,29.71593 C26.1722464,29.23623 26.0267024,29.16963 25.5837424,29.17143 C22.3483264,29.18673 19.1120064,29.17953 15.8765904,29.17953 C15.1280784,29.17953 15.1298864,29.17953 15.2953184,28.47213 C15.4417664,27.84573 15.5818864,27.21933 15.7527424,26.46513 C12.9620944,28.29303 10.2998144,30.03993 7.6321104,31.78053 C7.3093824,31.99113 7.5534624,32.09013 7.6899664,32.21883 C8.9239264,33.38253 10.1569824,34.54533 11.3909424,35.70723 C11.9731184,36.25443 12.5561984,36.79983 13.1826704,37.38573 C13.3625664,36.61353 13.5515024,35.93943 13.6690224,35.25273 C13.7458624,34.79913 13.9375104,34.68393 14.3949344,34.68573 C20.2564704,34.70373 26.1180064,34.70013 31.9795424,34.69653 C34.1175024,34.69473 36.2147824,33.09813 36.7137904,31.04253 C37.4577824,27.97623 38.1800784,24.90543 38.8788704,21.82833 C39.3353904,19.82403 38.0535184,18.20583 35.9770304,18.19323 C31.8358064,18.16713 27.6936784,18.18693 23.5515504,18.18063 C23.2676944,18.17973 23.1311904,18.24273 23.0697184,18.55413 C22.9160384,19.32633 22.7099264,20.08773 22.5074304,20.92383 M29.5739984,0.632205 C35.6208544,0.632205 41.6668064,0.632205 47.7136624,0.63333 C49.8037104,0.63333 50.9472704,2.03643 50.5169664,4.07853 C48.1421584,15.35553 45.7664464,26.63163 43.3880224,37.90683 C42.9703744,39.88593 41.2003424,41.31243 39.1780944,41.31243 C27.0672064,41.313105 14.9554144,41.313105 2.8445264,41.31243 C0.8349344,41.31243 -0.3303216,39.86973 0.0819024,37.91583 C2.4657504,26.62263 4.8468864,15.32943 7.2253104,4.03443 C7.6384384,2.07423 9.4093744,0.63333 11.4352384,0.63333 C17.4811904,0.63153 23.5280464,0.632205 29.5739984,0.632205" id="Fill-2" fill="#3AAE4A" mask="url(#mask-2)"></path></g><path d="M67.955488,6.80112 C67.139176,8.12322 66.331904,9.42642 65.527344,10.72962 C63.764544,13.58622 62.002648,16.44372 60.240752,19.30032 C60.031928,19.63782 59.448848,19.82322 59.105328,19.66932 C58.957976,19.60362 58.95888,19.47942 58.93628,19.35252 C58.61084,17.43822 58.279976,15.52572 57.95544,13.61142 C57.564912,11.30112 57.178904,8.99082 56.763968,6.52212 C56.394232,8.22222 56.050712,9.77202 55.718944,11.32362 C55.152136,13.97142 54.59256,16.62012 54.032984,19.26882 C53.974224,19.54422 53.888344,19.72602 53.536688,19.69452 C53.11452,19.65582 52.686024,19.67382 52.262048,19.68912 C51.942032,19.70082 51.816376,19.67832 51.905872,19.27062 C52.919256,14.62302 53.904616,9.97002 54.898112,5.31792 C55.050888,4.60242 55.219936,3.89052 55.353728,3.17142 C55.39712,2.93292 55.454976,2.82402 55.726176,2.83122 C56.4096,2.85192 57.093928,2.84922 57.777352,2.83302 C58.046744,2.82672 58.10912,2.94372 58.148896,3.18312 C58.811528,7.13772 59.4832,11.09052 60.155776,15.04242 C60.17928,15.18282 60.231712,15.31872 60.289568,15.52392 C61.509968,13.55472 62.698728,11.64132 63.883872,9.72612 C65.225408,7.55982 66.571464,5.39622 67.89944,3.22092 C68.073912,2.93472 68.25652,2.81862 68.596424,2.82942 C69.388328,2.85642 70.18204,2.83842 71.00468,2.83842 C70.286,6.20532 69.579072,9.53082 68.86672,12.85542 C68.411104,14.98302 67.933792,17.10792 67.503488,19.24092 C67.423936,19.63332 67.264832,19.71162 66.919504,19.69002 C66.551576,19.66752 66.179128,19.66122 65.812104,19.69182 C65.415248,19.7240932 65.297728,19.60002 65.385416,19.20672 C65.853688,17.11872 66.3084,15.02802 66.765824,12.93822 C67.183472,11.02662 67.60112,9.11412 68.013344,7.20162 C68.037752,7.08912 68.090184,6.95862 67.955488,6.80112" id="Fill-5" fill="#242021"></path><path d="M70.4555904,39.22704 C68.5978704,39.15684 66.4987824,38.59794 64.7694304,37.04004 C63.9585424,36.30924 63.9684864,36.29664 64.6980144,35.51094 C64.9366704,35.25534 65.1463984,34.84494 65.4257344,34.79004 C65.7412304,34.72794 65.8931024,35.22204 66.1471264,35.44614 C67.9515104,37.03464 70.0298064,37.65294 72.3919584,37.13364 C73.6756384,36.85194 74.5344384,35.82144 74.6700384,34.53264 C74.7523024,33.74964 74.3825664,33.15564 73.7651344,32.69754 C72.7327664,31.92984 71.5069424,31.56084 70.3416864,31.06674 C69.6474144,30.77154 68.9639904,30.46194 68.3076864,30.08484 C65.2105824,28.30734 65.8135504,24.99624 67.8376064,23.33844 C69.1773344,22.24134 70.7367344,21.84894 72.4281184,21.93354 C74.4792944,22.03614 76.3279744,22.64544 77.8042064,24.15654 C78.1052384,24.46524 78.1947344,24.67674 77.8249984,24.98814 C77.5321024,25.23654 77.2798864,25.53534 77.0267664,25.82694 C76.8396384,26.04384 76.7266384,26.04204 76.5196224,25.81884 C75.0605664,24.25194 73.2308704,23.64984 71.1245504,23.90274 C70.1075504,24.02424 69.2785824,24.52554 68.7470304,25.42464 C68.2127664,26.32824 68.3881424,27.21744 69.2134944,27.86454 C70.0948944,28.55574 71.1498624,28.90134 72.1677664,29.32254 C73.0491664,29.68704 73.9359904,30.04524 74.7532064,30.54564 C77.2211264,32.05854 77.6930144,34.92144 75.8452384,37.15344 C74.7134304,38.52054 73.0175264,39.22704 70.4555904,39.22704" id="Fill-7" fill="#242021"></path><path d="M89.6408208,26.7804 C88.7991968,28.1358 88.0190448,29.394 87.2379888,30.6522 C85.0512128,34.1739 82.8626288,37.6947 80.6767568,41.2182 C80.3368528,41.7654 79.9671168,42.291 79.5440448,42.7779 C78.7901088,43.6464 77.8454288,44.1027 76.6792688,44.0811 C76.3095328,44.0739 75.9343728,44.0415 75.5718688,44.0892 C75.0511648,44.1567 75.0565888,43.8993 75.1515088,43.5357 C75.2608928,43.1109 75.2455248,42.5844 75.5013568,42.2865 C75.7571888,41.9886 76.2995888,42.2001 76.7145248,42.1857 C77.4232608,42.1605 77.9484848,41.8311 78.3218368,41.2614 C78.7928208,40.5396 79.2249328,39.7926 79.6968208,39.0708 C79.8360368,38.8557 79.8179568,38.6469 79.7817968,38.4381 C79.1417648,34.7211 78.4999248,31.0041 77.8372928,27.2916 C77.7622608,26.8722 77.8318688,26.7057 78.2730208,26.7786 C78.3625168,26.793 78.4574368,26.7804 78.5496448,26.7804 C80.0114128,26.7804 79.9924288,26.7831 80.2220448,28.2033 C80.6243248,30.6981 81.0519168,33.1884 81.4722768,35.6796 C81.4885488,35.7804 81.5427888,35.8749 81.5988368,36.0243 C83.2197088,33.4098 84.8884928,30.8817 86.3728608,28.2519 C87.0282608,27.0909 87.7623088,26.5239 89.0812448,26.7768 C89.2213648,26.8038 89.3714288,26.7804 89.6408208,26.7804" id="Fill-9" fill="#242021"></path><path d="M101.753969,14.17032 C100.441361,14.17032 99.1296568,14.16312 97.8170488,14.17572 C97.5078808,14.17842 97.3903608,14.12622 97.4599688,13.77792 C97.7221288,12.46392 97.7103768,12.46212 99.0934968,12.46212 C100.737873,12.46212 102.383153,12.44142 104.028433,12.47562 C104.484953,12.48552 104.527441,12.32262 104.496705,11.95182 C104.235449,8.78742 101.019921,8.21862 99.0835528,9.17442 C97.2412008,10.08342 96.4266968,11.68092 96.2034088,13.63572 C96.1310888,14.27382 96.0958328,14.91462 96.2531288,15.54732 C96.7467128,17.52822 98.6414968,18.40212 100.635721,18.24642 C101.682553,18.16452 102.654353,17.84232 103.506825,17.21592 C103.673161,17.09442 103.781641,17.05212 103.859385,17.28702 C103.887409,17.37342 103.931705,17.45442 103.971481,17.53632 C104.448793,18.50472 104.450601,18.50742 103.499593,18.99702 C101.660857,19.94112 99.7434728,20.13012 97.7718488,19.51182 C95.5950168,18.82962 94.3610568,17.24562 94.1920088,14.99382 C93.9334648,11.55852 96.0000088,8.40402 99.1359848,7.43922 C100.312089,7.07832 101.495425,7.05582 102.679665,7.37442 C104.548233,7.87572 105.937681,9.50022 106.190801,11.41722 C106.295665,12.20922 106.255889,12.98772 106.135657,13.77072 C106.086841,14.07852 105.964801,14.18562 105.635745,14.17932 C104.341217,14.15772 103.047593,14.17032 101.753969,14.17032" id="Fill-11" fill="#242021"></path><path d="M77.1216864,8.98695 C73.8202784,8.88165 71.3152944,12.52935 72.2789584,15.60465 C73.0003504,17.90865 76.0902224,18.86895 78.3185824,17.48205 C80.0795744,16.38585 80.8380304,14.70735 80.8552064,12.69585 C80.8732864,10.41705 79.4151344,8.99955 77.1216864,8.98695 M77.5483744,7.25895 C80.1139264,7.26345 82.2482704,8.75565 82.8277344,11.33415 C83.2824464,13.35285 82.8141744,15.23115 81.6308384,16.91505 C79.7342464,19.61595 76.1299984,20.60235 73.1269104,19.21635 C70.9446544,18.20925 70.1229184,16.36605 70.1645024,14.06925 C70.2142224,11.24685 72.1433584,8.58645 74.8173904,7.64235 C75.5704224,7.37595 76.3496704,7.24725 77.5483744,7.25895" id="Fill-13" fill="#242021"></path><path d="M92.4508144,28.38132 C93.0149104,28.01232 93.5003584,27.65502 94.0228704,27.36162 C95.4891584,26.53812 97.0467504,26.21412 98.7037824,26.67582 C100.31019,27.12492 101.140966,28.48302 100.79835,30.10212 C100.194478,32.94792 99.5725264,35.78922 98.9668464,38.63502 C98.9071824,38.91852 98.7914704,39.03192 98.4904384,39.01302 C98.0664624,38.98692 97.6379664,38.98602 97.2157984,39.01302 C96.8894544,39.03372 96.8424464,38.91312 96.9039184,38.63142 C97.4634944,36.05652 97.9986624,33.47622 98.5736064,30.90492 C99.0445904,28.80612 97.8495024,28.12752 96.1798144,28.24272 C94.5381504,28.35522 93.2870144,29.33982 92.1127184,30.40272 C91.9427664,30.55572 91.9481904,30.77262 91.9075104,30.95892 C91.3651104,33.44382 90.8290384,35.93142 90.3155664,38.42262 C90.2224544,38.87172 90.0561184,39.06972 89.5661504,39.01752 C89.0969744,38.96712 88.6178544,39.00672 88.1116144,39.00672 C88.8384304,35.58312 89.5507824,32.21982 90.2658464,28.85652 C90.3878864,28.28502 90.5415664,27.71802 90.6373904,27.14202 C90.6825904,26.87112 90.7648544,26.76132 91.0514224,26.77482 C91.5124624,26.79642 91.9771184,26.80092 92.4372544,26.77392 C92.7753504,26.75322 92.8051824,26.89272 92.7346704,27.16272 C92.6361344,27.54162 92.5556784,27.92592 92.4508144,28.38132" id="Fill-15" fill="#242021"></path><path d="M60.1920264,38.90448 C60.6874184,36.60048 61.1728664,34.34868 61.6565064,32.09508 C61.7640824,31.59378 61.8644264,31.09068 61.9720024,30.59028 C62.2459144,29.31588 61.6366184,28.42128 60.3502264,28.20978 C59.3874664,28.05138 58.4834664,28.20888 57.6346104,28.68228 C56.9059864,29.08728 56.2614344,29.60118 55.6349624,30.14838 C55.2552824,30.47958 55.2543784,30.92958 55.1630744,31.34628 C54.6342344,33.73938 54.1144344,36.13518 53.6208504,38.53638 C53.5566664,38.84868 53.4499944,38.92068 53.1625224,38.90988 C52.6282584,38.89098 52.0930904,38.90448 51.5317064,38.90448 C52.1708344,35.91288 52.8000184,32.96178 53.4319144,30.01068 C53.6353144,29.06298 53.8604104,28.11978 54.0394024,27.16668 C54.1053944,26.82198 54.2084504,26.63748 54.5971704,26.68518 C55.1016024,26.74728 55.7940664,26.46378 56.0625544,26.80668 C56.2614344,27.06048 55.9323784,27.72468 55.8401704,28.20708 C55.8374584,28.22328 55.8474024,28.24218 55.8627704,28.30158 C56.5263064,27.79848 57.1780904,27.30618 57.9247944,26.95068 C59.1768344,26.35308 60.4749784,26.25948 61.8038584,26.56638 C63.5992024,26.98128 64.4869304,28.32588 64.1199064,30.14028 C63.5540024,32.93838 62.9293384,35.72388 62.3381224,38.51658 C62.2748424,38.81448 62.1564184,38.93688 61.8273624,38.91348 C61.3129864,38.87838 60.7949944,38.90448 60.1920264,38.90448" id="Fill-17" fill="#242021"></path><path d="M95.6827952,7.47081 C94.6142672,9.18441 93.5882272,10.82781 92.5639952,12.47391 C91.1483312,14.74731 89.7308592,17.01891 88.3269472,19.30041 C88.1542832,19.58211 87.9716752,19.71441 87.6281552,19.69371 C87.1128752,19.66131 86.5930752,19.67391 86.0759872,19.69011 C85.7993632,19.69821 85.7071552,19.60821 85.6592432,19.32561 C85.0146912,15.53481 84.3583872,11.74581 83.6885232,7.95861 C83.6134912,7.53201 83.7382432,7.41591 84.1504672,7.46541 C84.6765952,7.52931 85.3627312,7.24131 85.6944992,7.58331 C85.9901072,7.88841 85.9087472,8.55261 85.9955312,9.05751 C86.4384912,11.63781 86.8823552,14.21811 87.3253152,16.80381 C87.5296192,16.78581 87.5422752,16.61211 87.6100752,16.50321 C89.4090352,13.62411 91.2061872,10.74411 92.9897792,7.85601 C93.1633472,7.57611 93.3387232,7.44381 93.6849552,7.46181 C94.3222752,7.49331 94.9623072,7.47081 95.6827952,7.47081" id="Fill-19" fill="#242021"></path><g id="Group-23" transform="translate(101.248000, 26.100000)"><mask id="mask-4" fill="white"><use xlink:href="#path-3"></use></mask><g id="Clip-22"></g><path d="M9.66602,3.97017 C8.26934,1.82637 5.250884,2.04417 3.67702,3.66057 C2.303844,5.07177 1.793084,6.80877 2.211636,8.72577 C2.694372,10.94337 5.486828,11.94777 7.55518,10.70487 C7.79022,10.56357 8.05238,10.41957 8.211484,10.20897 C8.564948,9.73917 8.761116,9.98937 9.01062,10.29987 C9.708508,11.16747 9.71574,11.16297 8.786428,11.82807 C6.57434,13.41657 3.284684,13.19247 1.481204,11.31237 C0.371996,10.15677 0.114356,8.72667 0.177636,7.18947 C0.296964,4.31127 2.382492,1.65177 5.176756,0.96597 C6.865428,0.55107 8.5089,0.69867 9.984228,1.73997 C10.381988,2.02077 10.8367,2.35647 10.918964,2.79117 C11.019308,3.32037 10.314188,3.38247 10.0231,3.71277 C9.92818,3.81987 9.786252,3.88557 9.66602,3.97017" id="Fill-21" fill="#242021" mask="url(#mask-4)"></path></g><path d="M48.724244,38.8961101 C47.667468,38.8961101 47.681932,38.89881 47.902508,37.87911 C48.66458,34.35831 49.42394,30.83661 50.162508,27.31041 C50.263756,26.82711 50.417436,26.57781 50.967972,26.65881 C51.419068,26.72541 52.097068,26.51931 52.292332,26.75061 C52.548164,27.05661 52.20374,27.63711 52.107012,28.09521 C51.397372,31.45851 50.667844,34.81821 49.947356,38.17971 C49.792772,38.8961101 49.79458,38.8961101 48.724244,38.8961101" id="Fill-24" fill="#242021"></path><path d="M52.134584,23.13207 C53.175992,23.13207 53.175992,23.13207 52.954512,24.11757 C52.686928,25.31007 52.686928,25.31007 51.456584,25.31007 C50.59688,25.31007 50.597784,25.31097 50.784912,24.49737 C50.80932,24.39027 50.821072,24.28047 50.842768,24.17337 C51.055208,23.13207 51.055208,23.13207 52.134584,23.13207" id="Fill-26" fill="#242021"></path></g></g></g></g></svg> 